<svg width="157" height="598" viewBox="0 0 157 598" fill="none" xmlns="http://www.w3.org/2000/svg">
<path d="M66.8662 234.644C70.6623 235.207 74.547 235.5 78.5 235.5C79.4106 235.5 80.3176 235.483 81.2207 235.452V590.229C81.2205 594.19 78.0089 597.4 74.0479 597.4H74.0381C70.0773 597.4 66.8664 594.189 66.8662 590.229V234.644ZM78.5 0C121.854 0 157 35.1023 157 78.4033V157.097C157 199.488 123.315 234.02 81.2207 235.452V176.668C81.5489 176.436 81.8643 176.175 82.1582 175.881L130.656 127.383C133.457 124.582 133.457 120.041 130.656 117.24L130.648 117.232C127.848 114.432 123.307 114.432 120.506 117.232L81.2207 156.518V78.4756C81.2205 74.5146 78.0089 71.3037 74.0479 71.3037H74.0381C70.0773 71.304 66.8664 74.5148 66.8662 78.4756V115.411L41.8916 90.4365C39.0906 87.6357 34.549 87.6356 31.748 90.4365L31.7412 90.4434C28.9405 93.2443 28.9405 97.786 31.7412 100.587L66.3311 135.177C66.5029 135.349 66.682 135.509 66.8662 135.66V234.644C29.029 229.029 0.000166878 196.449 0 157.097V78.4033C8.88727e-05 35.1023 35.1457 0 78.5 0Z" fill="white"/>
</svg>
