<svg width="110" height="419" viewBox="0 0 110 419" fill="none" xmlns="http://www.w3.org/2000/svg">
<path d="M46.8486 164.399C49.5085 164.794 52.2302 165 55 165C55.638 165 56.2735 164.988 56.9062 164.967V413.536C56.9061 416.311 54.6561 418.562 51.8809 418.562H51.874C49.0989 418.561 46.8488 416.311 46.8486 413.536V164.399ZM55 0C85.3757 2.0591e-06 110 24.5943 110 54.9326V110.067C110 139.768 86.3992 163.963 56.9062 164.967V123.78C57.1364 123.617 57.3574 123.435 57.5635 123.229L91.543 89.249C93.5051 87.2866 93.5052 84.105 91.543 82.1426L91.5381 82.1377C89.5756 80.1752 86.3931 80.1752 84.4307 82.1377L56.9062 109.662V54.9834C56.9062 52.2081 54.6562 49.958 51.8809 49.958H51.874C49.0988 49.9581 46.8486 52.2081 46.8486 54.9834V80.8604L29.3506 63.3633C27.3881 61.4009 24.2066 61.4008 22.2441 63.3633L22.2393 63.3682C20.2769 65.3306 20.2769 68.5122 22.2393 70.4746L46.4746 94.71C46.5948 94.8301 46.7199 94.9424 46.8486 95.0479V164.399C20.3386 160.466 0 137.639 0 110.067V54.9326C0 24.5943 24.6243 0 55 0Z" fill="white"/>
</svg>
