<svg width="196" height="180" viewBox="0 0 196 180" fill="none" xmlns="http://www.w3.org/2000/svg">
<path d="M43.0144 51.9393C45.0939 48.9031 47.6571 46.2225 50.631 43.9687C57.9424 38.4435 66.9559 36.0962 76.0324 37.3554C85.1089 38.6147 93.1408 43.328 98.6659 50.6394C107.574 62.4256 107.966 78.5236 99.6258 90.7011C97.5463 93.7373 94.9831 96.4178 92.0091 98.6717C84.6977 104.197 75.6843 106.544 66.6078 105.285C57.5313 104.026 49.4994 99.3124 43.9743 92.001C35.0657 80.2148 34.6738 64.1168 43.0201 51.931M28.9888 42.3329C16.8678 60.0299 16.7563 84.207 30.4126 102.263C47.4986 124.85 79.6704 129.322 102.263 112.228C106.808 108.795 110.606 104.754 113.651 100.307C125.772 82.6105 125.884 58.4333 112.228 40.3773C95.1415 17.7904 62.9698 13.3184 40.3772 30.4127C35.8325 33.8451 32.0346 37.886 28.9888 42.3329Z" fill="white"/>
<path d="M108.645 101.422C104.784 96.3165 97.5149 95.3081 92.4098 99.1695C87.3046 103.031 86.2962 110.3 90.1575 115.405L126.503 163.458C130.364 168.563 137.633 169.571 142.738 165.71C147.843 161.849 148.851 154.58 144.99 149.475L108.645 101.422Z" fill="white"/>
</svg>
