<svg width="95" height="87" viewBox="0 0 95 87" fill="none" xmlns="http://www.w3.org/2000/svg">
<path d="M88.4087 24.9629L28.6576 2.48017C25.0172 1.11041 20.9558 2.95107 19.586 6.5914L18.9251 8.3479C17.5553 11.9882 19.396 16.0497 23.0363 17.4195L82.7874 39.9022C86.4278 41.272 90.4892 39.4313 91.859 35.791L92.5199 34.0345C93.8897 30.3942 92.049 26.3327 88.4087 24.9629Z" fill="white"/>
<path d="M80.1892 46.8126L20.4381 24.3298C16.7977 22.96 12.7363 24.8007 11.3665 28.441L10.7056 30.1975C9.33583 33.8378 11.1765 37.8993 14.8168 39.2691L74.5679 61.7518C78.2083 63.1216 82.2697 61.281 83.6395 57.6406L84.3004 55.8841C85.6702 52.2438 83.8295 48.1823 80.1892 46.8126Z" fill="white"/>
<path d="M71.9639 68.6622L12.2127 46.1794C8.57241 44.8096 4.51093 46.6503 3.14117 50.2906L2.48024 52.0471C1.11048 55.6874 2.95114 59.7489 6.59147 61.1187L66.3426 83.6015C69.9829 84.9712 74.0444 83.1306 75.4142 79.4902L76.0751 77.7337C77.4448 74.0934 75.6042 70.0319 71.9639 68.6622Z" fill="white"/>
</svg>
